<svg id="Layer_1" data-name="Layer 1" xmlns="http://www.w3.org/2000/svg" viewBox="0 0 75 75"><defs><style>.cls-1{fill:#2789ad;}.cls-2{font-size:36px;fill:#fff;font-family:BaskOldFace, Baskerville Old Face;}.cls-3{font-size:28.56px;}.cls-4{fill:#f8ed3a;}.cls-5{fill:#ce1f3f;}.cls-6{fill:#74d1f6;}.cls-7{fill:#2bb34b;}.cls-8{fill:#3e56a6;}.cls-9{fill:#f1698a;}.cls-10{fill:#ad6528;}</style></defs><rect class="cls-1" width="75" height="75"/><text class="cls-2" transform="translate(1.78 31.19)">U<tspan class="cls-3" x="27.11" y="0">nity</tspan></text><path class="cls-4" d="M16.44,56.44V70.56A6.62,6.62,0,0,1,16,73a6.25,6.25,0,0,1-1.19,2H4.32a6.77,6.77,0,0,1-1.65-4.44V56.44a6.89,6.89,0,0,1,13.77,0Z"/><rect class="cls-5" x="13.94" y="47.11" width="13.78" height="27.89" rx="6.89"/><path class="cls-6" d="M36.53,75a6.66,6.66,0,0,0,1.14-1.88,6.83,6.83,0,0,0,.5-2.56V56.44a6.91,6.91,0,0,0-6.89-6.88,6.93,6.93,0,0,0-6.89,6.88V70.56a6.7,6.7,0,0,0,.68,3A6.38,6.38,0,0,0,26,75Z"/><rect class="cls-7" x="35.5" y="47.11" width="13.78" height="27.89" rx="6.89"/><path class="cls-8" d="M59,75l.09-.1a6.85,6.85,0,0,0,1.55-4.34V56.44a6.9,6.9,0,0,0-6.89-6.88,6.93,6.93,0,0,0-6.89,6.88V70.56a6.69,6.69,0,0,0,.71,3A6.3,6.3,0,0,0,48.48,75Z"/><path class="cls-9" d="M68.68,75a6.63,6.63,0,0,0,1.13-.91,6.86,6.86,0,0,0,2-4.87V55.11a6.89,6.89,0,0,0-13.77,0V69.22a6.89,6.89,0,0,0,3,5.68l.15.1Z"/><circle class="cls-4" cx="9.19" cy="43.19" r="4.75"/><circle class="cls-5" cx="20.83" cy="41.39" r="4.75"/><circle class="cls-6" cx="31.28" cy="43.47" r="4.75"/><circle class="cls-7" cx="42.39" cy="41.39" r="4.75"/><circle class="cls-8" cx="53.72" cy="43.19" r="4.75"/><circle class="cls-9" cx="65.22" cy="42.25" r="4.75"/><path class="cls-10" d="M75,67.18V75H0V67a4.61,4.61,0,0,1,1.89-.4H72.67A4.64,4.64,0,0,1,75,67.18Z"/></svg>