<svg id="Layer_1" data-name="Layer 1" xmlns="http://www.w3.org/2000/svg" viewBox="0 0 74.39 74.39"><defs><style>.cls-1{fill:#219ebc;stroke:#013047;stroke-miterlimit:10;stroke-width:0.25px;}.cls-2{fill:#febe20;}.cls-3{fill:#706c60;}</style></defs><circle class="cls-1" cx="37.2" cy="37.2" r="37.07"/><path class="cls-2" d="M15.58,37l-1.79-.87.47,1.94L13,36.49l-.41,1.95-.43-1.95L11,38.08l.44-1.94L9.62,37l1.25-1.56-2,0,.77-.36-2.42-.3a1.74,1.74,0,0,1,1.93-1.5l1.47.18-1-1.24,1.8.87-.48-1.94,1.24,1.56.41-2,.44,2,1.21-1.59-.45,1.95,1.78-.9L14.29,33.8l2,0-.78.36.73.09a1.72,1.72,0,0,1,1.5,1.92l-3.19-.39Z" transform="translate(-0.3 -0.53)"/><path class="cls-2" d="M56.18,39.18l1.79.87-.47-1.94,1.24,1.57.41-2,.43,2,1.22-1.59L60.36,40l1.78-.9-1.25,1.56,2,0-.77.36,2.42.3a1.74,1.74,0,0,1-1.93,1.5l-1.47-.18,1,1.24L60.37,43,60.85,45l-1.24-1.56-.41,2-.44-2L57.55,45,58,43l-1.78.9,1.25-1.56-2,0,.78-.36L55.52,42A1.72,1.72,0,0,1,54,40l3.19.39Z" transform="translate(-0.3 -0.53)"/><path class="cls-2" d="M20.75,51.67l-1.88.65,1.71,1-2-.23,1.09,1.67L18,53.72l.26,2L17.2,54l-.63,1.9-.22-2L15,55.36l.29-.8-1.92,1.5a1.72,1.72,0,0,1,.3-2.42l1.17-.91-1.61-.15,1.89-.66-1.71-1,2,.23-1.09-1.68L16,50.51l-.27-2,1.06,1.69.63-1.89.22,2L19,48.88l-.29.81.58-.45a1.72,1.72,0,0,1,2.42.3l-2.54,2Z" transform="translate(-0.3 -0.53)"/><path class="cls-2" d="M51,24.5l1.88-.65-1.71-1,2,.23-1.09-1.67,1.69,1.07-.26-2,1.05,1.69.63-1.9.22,2,1.39-1.43-.29.8,1.92-1.5a1.72,1.72,0,0,1-.3,2.42L57,23.44l1.61.15-1.89.66,1.71,1-2-.23,1.09,1.68-1.69-1.07.27,2L55,25.94l-.63,1.89-.22-2-1.38,1.44.29-.81-.58.45a1.72,1.72,0,0,1-2.42-.3l2.54-2Z" transform="translate(-0.3 -0.53)"/><path class="cls-2" d="M34.79,58.38l-.88,1.8,2-.48-1.58,1.24,2,.41-2,.44L35.87,63l-1.94-.45.9,1.78-1.56-1.25,0,2-.37-.77-.3,2.42a1.71,1.71,0,0,1-1.49-1.92l.18-1.47-1.25,1L31,62.58,29,63.05l1.56-1.23-2-.42L30.57,61,29,59.76l2,.45L30,58.42l1.56,1.25,0-2,.37.79.09-.74a1.72,1.72,0,0,1,1.92-1.5l-.4,3.2Z" transform="translate(-0.3 -0.53)"/><path class="cls-2" d="M37,17.79l.88-1.8-2,.48,1.58-1.24-2-.41,1.95-.44-1.58-1.22,1.94.45-.9-1.78,1.56,1.25,0-2,.37.77.3-2.42a1.71,1.71,0,0,1,1.49,1.92l-.18,1.47,1.25-1-.88,1.79,1.94-.47-1.56,1.23,2,.42-2,.43,1.58,1.21-2-.45.9,1.79L40.16,16.5l0,2-.37-.79-.09.74A1.72,1.72,0,0,1,37.82,20l.4-3.2Z" transform="translate(-0.3 -0.53)"/><path class="cls-2" d="M49.46,53.21l.65,1.89,1-1.71-.24,2,1.67-1.1L51.52,56l2-.26-1.69,1.06,1.9.62-2,.22L53.16,59l-.81-.28,1.51,1.92a1.73,1.73,0,0,1-2.42-.31l-.92-1.16-.15,1.6-.65-1.89-1,1.71.23-2-1.67,1.1L48.31,58l-2,.26L48,57.22l-1.9-.62,2-.22L46.68,55l.81.29L47,54.7a1.72,1.72,0,0,1,.3-2.41l2,2.53Z" transform="translate(-0.3 -0.53)"/><path class="cls-2" d="M22.3,23l-.65-1.89-1,1.71.24-2-1.67,1.1,1.06-1.69-2,.26L20,19.4l-1.9-.62,2-.22L18.6,17.17l.81.28L17.9,15.53a1.73,1.73,0,0,1,2.42.31L21.24,17l.15-1.6L22,17.29l1-1.71-.23,2,1.67-1.1-1.07,1.69,2-.26L23.73,19l1.9.62-2,.22,1.44,1.39-.81-.29.46.58a1.72,1.72,0,0,1-.3,2.41l-2-2.53Z" transform="translate(-0.3 -0.53)"/><path class="cls-2" d="M16.56,31.78l-1.51-1.31-.05,2-.78-1.84-.91,1.78.09-2-1.59,1.22.93-1.76-2,.41,1.61-1.19-1.94-.48.84-.15L9,27.54a1.72,1.72,0,0,1,2.24-.95l1.38.56L12,25.68,13.5,27l0-2,.79,1.83.9-1.78-.08,2,1.58-1.21-.94,1.76,2-.4-1.61,1.18,1.94.48-.85.16.68.27a1.72,1.72,0,0,1,.95,2.24l-3-1.2Z" transform="translate(-0.3 -0.53)"/><path class="cls-2" d="M55.2,44.39l1.51,1.31,0-2,.78,1.84.91-1.78-.09,2L60,44.54,59,46.3,61,45.89l-1.61,1.19,1.94.48-.84.15,2.26.92a1.72,1.72,0,0,1-2.24.95L59.1,49l.67,1.47-1.51-1.31,0,2-.79-1.83-.9,1.78.08-2L55,50.35,56,48.59,54,49l1.61-1.18-1.94-.48.85-.16-.68-.27a1.72,1.72,0,0,1-1-2.24l3,1.2Z" transform="translate(-0.3 -0.53)"/><path class="cls-2" d="M17.76,47.29l-2,.14,1.39,1.44-1.86-.74.62,1.9-1.35-1.47-.27,2-.58-1.9-1.09,1.67.3-2-1.71,1,.48-.7-2.25,1a1.74,1.74,0,0,1,.92-2.26l1.36-.58-1.51-.56,2-.14-1.39-1.44,1.86.73-.62-1.9,1.35,1.47.26-2,.58,1.92,1.09-1.67-.3,2,1.72-1-.5.71.68-.29a1.73,1.73,0,0,1,2.26.91l-3,1.26Z" transform="translate(-0.3 -0.53)"/><path class="cls-2" d="M54,28.88l2-.14L54.61,27.3l1.86.74-.62-1.9,1.35,1.47.27-2,.58,1.9,1.09-1.67-.3,2,1.71-1-.48.7,2.25-1a1.74,1.74,0,0,1-.92,2.26L60,29.4l1.51.56-2,.14,1.39,1.44-1.86-.73.62,1.9-1.35-1.47-.26,2-.58-1.92L56.42,33l.3-2L55,32l.5-.71-.68.29a1.73,1.73,0,0,1-2.26-.91l3-1.26Z" transform="translate(-0.3 -0.53)"/><path class="cls-2" d="M29.57,57.41l-1.31,1.51,2,0-1.84.79,1.78.9-2-.08,1.21,1.59-1.76-.94.41,2-1.18-1.61-.48,1.94-.16-.84-.91,2.26a1.73,1.73,0,0,1-.95-2.25l.55-1.37L23.48,62l1.31-1.51-2,0,1.83-.79-1.78-.91,2,.08-1.22-1.58,1.77.94-.41-2,1.19,1.61.48-1.94.15.85.28-.69a1.72,1.72,0,0,1,2.24-.95l-1.21,3Z" transform="translate(-0.3 -0.53)"/><path class="cls-2" d="M42.19,18.76l1.31-1.51-2,0,1.84-.79-1.78-.9,2,.08L42.34,14,44.1,15l-.41-2,1.18,1.61.48-1.94.16.84.91-2.26a1.73,1.73,0,0,1,.95,2.25l-.55,1.37,1.46-.67L47,15.7l2,0-1.83.79,1.78.91-2-.08,1.22,1.58L46.38,18,46.79,20,45.6,18.34l-.48,1.94L45,19.43l-.28.69a1.72,1.72,0,0,1-2.24.95l1.21-3Z" transform="translate(-0.3 -0.53)"/><path class="cls-2" d="M45.08,56.21l.14,2,1.45-1.38-.75,1.86,1.9-.62-1.47,1.35,2,.26-1.91.58,1.67,1.1-2-.3,1,1.71-.71-.48,1,2.24a1.72,1.72,0,0,1-2.26-.92l-.58-1.36L44,63.75l-.14-2-1.44,1.38.73-1.85-1.89.62,1.46-1.35-2-.26,1.91-.58L41,58.62l2,.3-1-1.71.71.49L42.35,57a1.72,1.72,0,0,1,.91-2.25l1.26,3Z" transform="translate(-0.3 -0.53)"/><path class="cls-2" d="M26.68,20l-.14-2-1.45,1.38.75-1.86-1.9.62,1.47-1.35-2-.26,1.91-.58-1.67-1.1,2,.3-1-1.71.71.48-1-2.24a1.72,1.72,0,0,1,2.26.92l.58,1.36.57-1.51.14,2L29.34,13l-.73,1.85,1.89-.62L29,15.61l2,.26-1.91.58,1.67,1.1-2-.3,1,1.71-.71-.49.29.68a1.72,1.72,0,0,1-.91,2.25l-1.26-3Z" transform="translate(-0.3 -0.53)"/><path class="cls-2" d="M18.85,27l-1.12-1.66-.56,1.92-.28-2-1.34,1.49.6-1.9-1.85.76,1.36-1.46-2-.11,1.87-.73-1.75-1,.85.07-2-1.47a1.73,1.73,0,0,1,2.42-.33l1.18.89L16,19.92l1.12,1.66.56-1.92.29,2,1.33-1.49-.59,1.91,1.84-.77-1.37,1.46,2,.12-1.87.72,1.75,1-.86-.07.6.44a1.72,1.72,0,0,1,.33,2.41l-2.57-1.94Z" transform="translate(-0.3 -0.53)"/><path class="cls-2" d="M52.91,49.18,54,50.84l.56-1.92.28,2,1.34-1.49-.6,1.9,1.85-.76L56.1,52l2,.11-1.87.73,1.75,1-.85-.07,1.95,1.47a1.73,1.73,0,0,1-2.42.33l-1.18-.89.27,1.59-1.12-1.66-.56,1.92-.29-2L52.45,56,53,54.12l-1.84.77,1.37-1.46-2-.12,1.87-.72-1.75-1,.86.07-.6-.44a1.72,1.72,0,0,1-.33-2.41l2.57,1.94Z" transform="translate(-0.3 -0.53)"/><path class="cls-2" d="M16,42.28l-2-.38,1,1.76-1.6-1.2.11,2-.93-1.77-.77,1.85-.07-2-1.48,1.33.8-1.83-1.92.55L9.78,42l-2.42.34a1.73,1.73,0,0,1,1.47-2l1.47-.2L9,39.29l2,.38-1-1.75,1.61,1.19-.11-2,.92,1.77L13.16,37l.07,2,1.49-1.33-.8,1.83L15.84,39l-.66.56.73-.1a1.72,1.72,0,0,1,1.95,1.46l-3.19.45Z" transform="translate(-0.3 -0.53)"/><path class="cls-2" d="M55.77,33.89l2,.38-1-1.76,1.6,1.2-.11-2,.93,1.77L60,31.64l.07,2,1.48-1.33-.8,1.83,1.92-.55-.65.55,2.42-.34a1.73,1.73,0,0,1-1.47,2l-1.47.2,1.31.94-2-.38,1,1.75-1.61-1.19.11,2-.92-1.77-.76,1.84-.07-2L57,38.46l.8-1.83-1.92.56.66-.56-.73.1a1.72,1.72,0,0,1-2-1.46l3.19-.45Z" transform="translate(-0.3 -0.53)"/><path class="cls-2" d="M24.79,55.12l-1.66,1.12,1.92.55-2,.29,1.49,1.33-1.91-.59.76,1.85L22,58.31l-.12,2-.72-1.86-1,1.75.07-.85-1.47,1.95a1.73,1.73,0,0,1-.34-2.42l.9-1.18-1.6.26,1.66-1.11-1.92-.56,2-.29-1.48-1.34,1.9.6-.76-1.84,1.46,1.36.11-2,.73,1.86,1-1.75-.07.86.45-.59a1.72,1.72,0,0,1,2.41-.34l-1.94,2.57Z" transform="translate(-0.3 -0.53)"/><path class="cls-2" d="M47,21.05l1.66-1.12-1.92-.55,2-.29L47.2,17.76l1.91.59-.76-1.85,1.45,1.36.12-2,.72,1.86,1-1.75-.07.85L53,14.88a1.73,1.73,0,0,1,.34,2.42l-.9,1.18,1.6-.26-1.66,1.11,1.92.56-2,.29,1.48,1.34-1.9-.6.76,1.84L51.22,21.4l-.11,2-.73-1.86-1,1.75.07-.86L49,23a1.72,1.72,0,0,1-2.41.34l1.94-2.57Z" transform="translate(-0.3 -0.53)"/><path class="cls-2" d="M40.08,58l-.38,2,1.75-1-1.2,1.61,2-.11-1.77.92,1.84.77-2,.07,1.33,1.49-1.83-.8.56,1.92-.56-.65.34,2.42a1.73,1.73,0,0,1-1.94-1.48L38,63.67,37.08,65l.39-2-1.76,1,1.19-1.6-2,.11,1.77-.93-1.85-.76,2-.07L35.5,59.24l1.83.81-.55-1.92.55.65-.1-.73a1.72,1.72,0,0,1,1.47-1.94l.44,3.19Z" transform="translate(-0.3 -0.53)"/><path class="cls-2" d="M31.68,18.2l.38-2-1.75,1,1.2-1.61-2,.11,1.77-.92L29.44,14l2-.07L30.1,12.45l1.83.8-.56-1.92.56.65-.34-2.42A1.73,1.73,0,0,1,33.53,11l.21,1.46.94-1.31-.39,2,1.76-1-1.19,1.6,2-.11-1.77.93,1.85.76-2,.07,1.33,1.49-1.83-.81L35,18l-.55-.65.1.73a1.72,1.72,0,0,1-1.47,1.94l-.44-3.19Z" transform="translate(-0.3 -0.53)"/><path class="cls-2" d="M35.88,15.13V62.21a23.54,23.54,0,0,1,0-47.08Z" transform="translate(-0.3 -0.53)"/><path class="cls-2" d="M35.88,62.21V15.13a23.54,23.54,0,0,1,0,47.08Z" transform="translate(-0.3 -0.53)"/><path class="cls-3" d="M72.69,43.55A17.67,17.67,0,0,1,55.12,61.2H29.51A17.63,17.63,0,0,1,20.7,28.33c2.21-7.07,7.44-12,13.53-12a12.25,12.25,0,0,1,8.3,3.42,12.46,12.46,0,0,1,8.93-4c6.54,0,12.08,5.72,14,13.6A17.69,17.69,0,0,1,72.69,43.55Z" transform="translate(-0.3 -0.53)"/></svg>