<svg id="Layer_1" data-name="Layer 1" xmlns="http://www.w3.org/2000/svg" viewBox="0 0 74.39 74.39"><defs><style>.cls-1{fill:#219ebc;stroke:#013047;stroke-miterlimit:10;stroke-width:0.25px;}.cls-2{fill:#706c60;}.cls-3{fill:#8250a0;}.cls-4{fill:#3c57a6;}</style></defs><circle class="cls-1" cx="37.2" cy="37.2" r="37.07"/><path class="cls-2" d="M67.86,39A17.65,17.65,0,0,1,50.3,56.61H24.69a17.65,17.65,0,0,1-8.82-32.88c2.21-7.06,7.44-12,13.53-12a12.32,12.32,0,0,1,8.31,3.42,12.45,12.45,0,0,1,8.93-4c6.54,0,12.07,5.72,14,13.61A17.66,17.66,0,0,1,67.86,39Z" transform="translate(-0.3 -0.3)"/><path class="cls-3" d="M27.88,54.91l.14-.14,1.08,7.67a.82.82,0,0,1,0,.38A.91.91,0,0,1,29,64.06l-5.61,5.59a.92.92,0,1,1-1.3-1.3l5.29-5.28a1,1,0,0,1-.13-.37l-1.1-7.86a.66.66,0,0,1,0-.14.84.84,0,0,1,.16-.49.88.88,0,0,0,.26.7A.92.92,0,0,0,27.88,54.91Z" transform="translate(-0.3 -0.3)"/><path class="cls-3" d="M33.49,49.32,28,54.77l0-.18a.92.92,0,0,0-1-.78.86.86,0,0,0-.63.4.82.82,0,0,1,.26-.59L32.18,48a1,1,0,0,1,1.31,0A.94.94,0,0,1,33.49,49.32Z" transform="translate(-0.3 -0.3)"/><path class="cls-3" d="M28,54.77l-.14.14a.92.92,0,0,1-1.3,0,.88.88,0,0,1-.26-.7.86.86,0,0,1,.63-.4.92.92,0,0,1,1,.78Z" transform="translate(-0.3 -0.3)"/><path class="cls-3" d="M28,54.77l-.14.14a.92.92,0,0,1-1.3,0,.88.88,0,0,1-.26-.7.86.86,0,0,1,.63-.4.92.92,0,0,1,1,.78Z" transform="translate(-0.3 -0.3)"/><path class="cls-3" d="M37,55.6l.14-.14,1.08,7.67a.77.77,0,0,1,0,.37.91.91,0,0,1,0,1.24l-5.61,5.6a.92.92,0,0,1-1.3-1.3l5.29-5.29a.92.92,0,0,1-.13-.36l-1.1-7.86a.66.66,0,0,1,0-.14.84.84,0,0,1,.16-.49.88.88,0,0,0,.26.7A.92.92,0,0,0,37,55.6Z" transform="translate(-0.3 -0.3)"/><path class="cls-3" d="M42.64,50l-5.47,5.46,0-.18a.92.92,0,0,0-1-.79.87.87,0,0,0-.63.41.86.86,0,0,1,.26-.6l5.6-5.61A.93.93,0,0,1,42.64,50Z" transform="translate(-0.3 -0.3)"/><path class="cls-3" d="M37.17,55.46,37,55.6a.92.92,0,0,1-1.3,0,.88.88,0,0,1-.26-.7.87.87,0,0,1,.63-.41.92.92,0,0,1,1,.79Z" transform="translate(-0.3 -0.3)"/><path class="cls-3" d="M37.17,55.46,37,55.6a.92.92,0,0,1-1.3,0,.88.88,0,0,1-.26-.7.87.87,0,0,1,.63-.41.92.92,0,0,1,1,.79Z" transform="translate(-0.3 -0.3)"/><path class="cls-3" d="M45.23,56.25l.14-.14,1.08,7.67a.77.77,0,0,1,0,.37.91.91,0,0,1-.05,1.24L40.76,71a.92.92,0,1,1-1.3-1.3l5.29-5.29a.92.92,0,0,1-.13-.36l-1.1-7.86a.66.66,0,0,1,0-.14.84.84,0,0,1,.16-.49.88.88,0,0,0,.26.7A.92.92,0,0,0,45.23,56.25Z" transform="translate(-0.3 -0.3)"/><path class="cls-3" d="M50.84,50.65l-5.47,5.46,0-.18a.92.92,0,0,0-1-.79.87.87,0,0,0-.63.41.86.86,0,0,1,.26-.6l5.6-5.61a.93.93,0,0,1,1.31,1.31Z" transform="translate(-0.3 -0.3)"/><path class="cls-3" d="M45.37,56.11l-.14.14a.92.92,0,0,1-1.3,0,.88.88,0,0,1-.26-.7.87.87,0,0,1,.63-.41.92.92,0,0,1,1,.79Z" transform="translate(-0.3 -0.3)"/><path class="cls-3" d="M45.37,56.11l-.14.14a.92.92,0,0,1-1.3,0,.88.88,0,0,1-.26-.7.87.87,0,0,1,.63-.41.92.92,0,0,1,1,.79Z" transform="translate(-0.3 -0.3)"/><path class="cls-4" d="M24.66,62.06c0,1.48-.63,2.68-1.41,2.68s-1.41-1.2-1.41-2.68a4.24,4.24,0,0,1,0-.51H22l1.29-3.61,1.16,3.61h.15A4.24,4.24,0,0,1,24.66,62.06Z" transform="translate(-0.3 -0.3)"/><path class="cls-4" d="M32.4,66.19c0,1.48-.63,2.68-1.41,2.68s-1.41-1.2-1.41-2.68a4.36,4.36,0,0,1,0-.51h.16l1.29-3.61,1.16,3.61h.15A4.36,4.36,0,0,1,32.4,66.19Z" transform="translate(-0.3 -0.3)"/><path class="cls-4" d="M42,62.06c0,1.48-.63,2.68-1.4,2.68s-1.41-1.2-1.41-2.68c0-.18,0-.34,0-.51h.17l1.29-3.61,1.16,3.61H42C42,61.72,42,61.88,42,62.06Z" transform="translate(-0.3 -0.3)"/><path class="cls-4" d="M51.11,62.06c0,1.48-.63,2.68-1.41,2.68s-1.41-1.2-1.41-2.68a4.24,4.24,0,0,1,0-.51h.16l1.29-3.61,1.16,3.61h.15A4.24,4.24,0,0,1,51.11,62.06Z" transform="translate(-0.3 -0.3)"/></svg>